<svg width="347" height="220" viewBox="0 0 347 220" fill="none" xmlns="http://www.w3.org/2000/svg">
<path d="M163.99 41.0408L259 58.5M65 110C65 170.199 113.801 219 174 219C234.199 219 283 170.199 283 110C283 49.801 234.199 1 174 1C113.801 1 65 49.801 65 110Z" stroke="black" stroke-opacity="0.5"/>
<circle cx="172.5" cy="20.5" r="1.5" fill="black"/>
<circle cx="260.5" cy="32.5" r="1.5" fill="black"/>
<path d="M73.4999 67.02C32.9333 64.7919 6.0772 67.7344 4.60211 76.1C2.06042 90.5147 75.8371 115.572 169.387 132.068C262.937 148.563 340.834 150.25 343.376 135.835C344.829 127.596 320.851 115.606 283 104" stroke="black" stroke-opacity="0.5"/>
</svg>
